<svg viewBox="0 0 22.3902 15.7561" fill="currentColor" xmlns="http://www.w3.org/2000/svg" aria-hidden="true">
  <path d="M5.53672 15.7561C4.11705 15.7561 2.83934 15.1861 1.70361 14.0461C0.567869 12.8654 0 11.1351 0 8.85517C0 6.24951 0.689555 4.13241 2.06866 2.50388C3.48834 0.834626 5.49616 0 8.09213 0C9.02505 0 9.75517 0.0610694 10.2825 0.183208V2.99244C9.71461 2.91101 8.98449 2.8703 8.09213 2.8703C6.71302 2.8703 5.59756 3.3385 4.74576 4.27491C3.93452 5.08918 3.46805 6.16808 3.34637 7.51163C3.87367 6.86021 4.72548 6.53451 5.90178 6.53451C7.11864 6.53451 8.15297 6.962 9.00477 7.81698C9.85657 8.63125 10.2825 9.71015 10.2825 11.0537C10.2825 12.438 9.83629 13.5779 8.94393 14.4736C8.05156 15.3286 6.91583 15.7561 5.53672 15.7561ZM17.6445 15.7561C16.2248 15.7561 14.9471 15.1861 13.8114 14.0461C12.6756 12.8654 12.1078 11.1351 12.1078 8.85517C12.1078 6.24951 12.7973 4.13241 14.1764 2.50388C15.5961 0.834626 17.6039 0 20.1999 0C21.0923 0 21.8224 0.0610694 22.3902 0.183208V2.99244C21.8224 2.91101 21.0923 2.8703 20.1999 2.8703C18.8208 2.8703 17.7053 3.3385 16.8535 4.27491C16.0423 5.08918 15.5758 6.16808 15.4541 7.51163C15.9814 6.86021 16.8332 6.53451 18.0095 6.53451C19.2264 6.53451 20.2607 6.962 21.1125 7.81698C21.9643 8.63125 22.3902 9.71015 22.3902 11.0537C22.3902 12.438 21.9441 13.5779 21.0517 14.4736C20.1593 15.3286 19.0236 15.7561 17.6445 15.7561Z"/>
</svg>
