<svg width="1024" height="1024" viewBox="0 0 1024 1024" fill="none" xmlns="http://www.w3.org/2000/svg">
<rect width="1024" height="1024" rx="200" fill="black"/>
<path d="M387.797 684.924C356.635 684.924 328.589 672.413 303.66 647.39C278.73 621.474 266.265 583.493 266.265 533.448C266.265 476.253 281.401 429.783 311.673 394.036C342.835 357.396 386.907 339.076 443.889 339.076C464.367 339.076 480.393 340.416 491.967 343.097V404.76C479.502 402.973 463.476 402.079 443.889 402.079C413.617 402.079 389.133 412.356 370.435 432.911C352.629 450.784 342.39 474.466 339.719 503.957C351.293 489.658 369.99 482.509 395.81 482.509C422.521 482.509 445.224 491.893 463.921 510.66C482.619 528.533 491.967 552.215 491.967 581.706C491.967 612.091 482.174 637.113 462.586 656.774C442.998 675.541 418.069 684.924 387.797 684.924ZM653.564 684.924C622.402 684.924 594.357 672.413 569.427 647.39C544.497 621.474 532.033 583.493 532.033 533.448C532.033 476.253 547.168 429.783 577.44 394.036C608.602 357.396 652.674 339.076 709.656 339.076C729.244 339.076 745.27 340.416 757.735 343.097V404.76C745.27 402.973 729.244 402.079 709.656 402.079C679.384 402.079 654.9 412.356 636.203 432.911C618.396 450.784 608.157 474.466 605.486 503.957C617.06 489.658 635.758 482.509 661.578 482.509C688.288 482.509 710.992 491.893 729.689 510.66C748.386 528.533 757.735 552.215 757.735 581.706C757.735 612.091 747.941 637.113 728.353 656.774C708.766 675.541 683.836 684.924 653.564 684.924Z" fill="white"/>
</svg>
